<?xml version="1.0" encoding="utf-8"?>
<!-- Generator: Adobe Illustrator 25.2.0, SVG Export Plug-In . SVG Version: 6.00 Build 0)  -->
<svg version="1.1" id="Layer_1" xmlns="http://www.w3.org/2000/svg" xmlns:xlink="http://www.w3.org/1999/xlink" x="0px" y="0px"
	 viewBox="0 0 188.2 29.4" style="enable-background:new 0 0 188.2 29.4;" xml:space="preserve">
<style type="text/css">
	.st0{fill:#FFFFFF;}
</style>
<rect x="107.1" class="st0" width="0.8" height="29.4"/>
<path class="st0" d="M123.5,19.2v-5.7h0.8c0.3,0,0.6,0,0.9,0.1c0.2,0.1,0.4,0.2,0.6,0.3c0.2,0.2,0.3,0.3,0.4,0.5
	c0.1,0.2,0.1,0.4,0.1,0.7c0,0.4-0.2,0.7-0.5,1c0.3,0.1,0.5,0.3,0.7,0.5c0.5,0.7,0.3,1.7-0.4,2.2c-0.1,0.1-0.2,0.1-0.4,0.2
	c-0.3,0.1-0.7,0.1-1,0.1L123.5,19.2z M124.4,15.9h0.3c0.3,0,0.5-0.1,0.7-0.2c0.2-0.2,0.2-0.4,0.2-0.6c0-0.2-0.1-0.4-0.2-0.6
	c-0.2-0.1-0.4-0.2-0.7-0.2h-0.3L124.4,15.9z M124.4,18.4h0.5c0.3,0,0.6-0.1,0.8-0.2c0.2-0.2,0.3-0.4,0.3-0.6c0-0.2-0.1-0.5-0.3-0.6
	c-0.3-0.2-0.6-0.3-1-0.2h-0.4L124.4,18.4z"/>
<path class="st0" d="M130.5,16.7l-1.9-3.2h1l1.3,2.3l1.3-2.3h1l-1.9,3.2v2.4h-0.9L130.5,16.7z"/>
<path class="st0" d="M126.7,24.2l-0.7,0.4c-0.1-0.2-0.2-0.3-0.4-0.4c-0.1-0.1-0.3-0.1-0.5-0.1c-0.2,0-0.4,0.1-0.6,0.2
	c-0.1,0.1-0.2,0.3-0.2,0.5c0,0.3,0.2,0.5,0.6,0.7l0.6,0.2c0.4,0.1,0.7,0.4,1,0.7c0.2,0.3,0.3,0.6,0.3,1c0,0.5-0.2,0.9-0.5,1.3
	c-0.7,0.7-1.8,0.7-2.5,0.1c-0.3-0.3-0.5-0.8-0.6-1.2l0.9-0.2c0,0.2,0.1,0.5,0.2,0.7c0.2,0.2,0.5,0.4,0.8,0.4c0.5,0,0.9-0.4,0.9-0.9
	c0,0,0,0,0,0v-0.1c0-0.1,0-0.2,0-0.3c0-0.1-0.1-0.2-0.1-0.2c-0.1-0.1-0.2-0.2-0.3-0.2l-0.4-0.2l-0.6-0.2c-0.7-0.2-1.1-0.8-1.2-1.4
	c0-0.4,0.2-0.8,0.5-1.1c0.7-0.6,1.8-0.6,2.5,0.2C126.6,24,126.7,24.1,126.7,24.2z"/>
<path class="st0" d="M129.3,26.2c0-0.8,0.3-1.5,0.9-2c0.6-0.6,1.3-0.9,2.1-0.9c1.6,0,2.9,1.3,2.9,2.9c0,0.8-0.3,1.5-0.9,2.1
	c-1.1,1.1-2.9,1.1-4.1,0.1C129.7,27.8,129.3,27,129.3,26.2z M130.2,26.2c0,1.2,0.9,2.1,2.1,2.1c0.6,0,1.1-0.2,1.5-0.6
	c0.8-0.8,0.8-2.2,0-3c-0.4-0.4-0.9-0.6-1.5-0.6c-0.6,0-1.1,0.2-1.5,0.6C130.4,25.1,130.2,25.6,130.2,26.2L130.2,26.2z"/>
<path class="st0" d="M140.9,24.2h-2v1.4h1.9v0.8h-1.9V29H138v-5.6h2.8L140.9,24.2z"/>
<path class="st0" d="M145.1,24.2V29h-0.9v-4.8H143v-0.8h3.4v0.8H145.1z"/>
<path class="st0" d="M151.6,26.1h2.4v0.2c0,0.4,0,0.8-0.1,1.1c-0.1,0.3-0.3,0.6-0.5,0.9c-0.5,0.6-1.2,0.9-2,0.9
	c-0.8,0-1.5-0.3-2-0.9c-1.1-1.2-1.1-3,0.1-4.2c0.9-0.8,2.2-1.1,3.3-0.6c0.4,0.2,0.8,0.5,1.1,0.9l-0.6,0.6c-0.4-0.6-1-0.9-1.7-0.9
	c-0.6,0-1.1,0.2-1.5,0.6c-0.4,0.4-0.6,1-0.6,1.5c0,1.1,0.9,2.1,2,2.1c0.4,0,0.8-0.1,1.1-0.4c0.3-0.2,0.5-0.6,0.6-1h-1.4L151.6,26.1z
	"/>
<path class="st0" d="M159.9,27.7h-2.4l-0.6,1.3h-0.9l2.8-6l2.7,6h-0.9L159.9,27.7z M159.5,26.9l-0.8-1.9l-0.9,1.9H159.5z"/>
<path class="st0" d="M165.7,26.6l1.8,2.4h-1l-1.6-2.3h-0.1V29h-0.9v-5.6h1c0.6,0,1.1,0.1,1.6,0.4c0.4,0.3,0.5,0.7,0.5,1.2
	c0,0.4-0.1,0.7-0.3,1C166.4,26.3,166.1,26.5,165.7,26.6z M164.7,26h0.3c0.8,0,1.2-0.3,1.2-0.9s-0.4-0.9-1.2-0.9h-0.3L164.7,26z"/>
<path class="st0" d="M170.1,29v-5.6h1.2c0.5,0,0.9,0,1.4,0.2c0.4,0.1,0.7,0.3,1,0.6c1.2,1.1,1.2,3,0.1,4.1c0,0,0,0,0,0l-0.1,0.1
	c-0.3,0.3-0.6,0.4-1,0.6c-0.4,0.1-0.9,0.2-1.3,0.1L170.1,29z M170.9,28.2h0.4c0.3,0,0.7,0,1-0.1c0.3-0.1,0.5-0.2,0.7-0.4
	c0.8-0.8,0.8-2.2,0-3c0,0,0,0,0,0l0,0c-0.5-0.4-1.1-0.6-1.7-0.5h-0.4L170.9,28.2z"/>
<path class="st0" d="M180.3,24.2h-2.3v1.4h2.2v0.8h-2.2v1.9h2.3V29h-3.1v-5.6h3.1V24.2z"/>
<path class="st0" d="M183.2,29v-6l4.1,4.3v-3.9h0.9v6l-4.2-4.3v4L183.2,29z"/>
<path class="st0" d="M0,28.5c2.5,0,2.7-1.9,2.7-4.6V7c0-2.7-0.1-4.6-2.7-4.6V2h9.5v0.4C7,2.4,6.8,4.3,6.8,7v16.9
	c0,2.7,0.2,4.6,2.7,4.6v0.5H0V28.5z"/>
<path class="st0" d="M30.2,9.5c0,5.3-3.1,8.4-8.6,8.4c-1.3,0-2.6-0.2-3.8-0.7v6.8c0,2.7,0.3,4.6,2.8,4.6v0.5H11v-0.5
	c2.5,0,2.7-1.9,2.7-4.6V7c0-2.7-0.1-4.6-2.7-4.6V2h10C26.9,2,30.2,5.1,30.2,9.5z M25.9,9.7C25.9,6,24.3,3,20.3,3h-1.1
	c-0.7-0.1-1.3,0.3-1.4,1c0,0.1,0,0.2,0,0.3V15c0,1.2,0.7,1.7,2.7,1.7C23.5,16.6,25.9,14.4,25.9,9.7z"/>
<path class="st0" d="M47.3,27c-0.8,1.4-2.3,2.3-3.9,2.4c-2,0-2.5-1.5-2.6-2.9c-1.4,1.7-3.6,2.8-5.8,2.9c-2.2,0.2-4.1-1.5-4.3-3.7
	c0,0,0,0,0,0c0-0.1,0-0.2,0-0.4c0-2.7,2-4.9,6.5-6.1l3.4-1v-2.4c0-1,0-4.6-3.5-4.6c-2.4,0-4.1,1.6-5.1,3.6l-0.7-0.3
	c1.1-3.2,4.1-5.4,7.5-5.3c3.7,0,5.7,2.5,5.7,6.2v9.4c0,1.2,0,2.4,1.1,2.4c0.5,0,1-0.3,1.3-0.6L47.3,27z M40.6,25.7v-6.5l-2.2,0.7
	c-1.5,0.5-4,1.3-4,4.3c0,2.1,1.2,3.1,2.7,3.1C38.4,27.2,39.6,26.6,40.6,25.7L40.6,25.7z"/>
<path class="st0" d="M66.6,28.5v0.5h-7.1v-0.5c1.5,0,1.6-1.3,1.6-3.6V16c0-2.6-0.6-4.4-3.2-4.4c-1.6,0.1-3.1,0.7-4.4,1.7v11.5
	c0,2.4,0.1,3.6,1.6,3.6v0.5H48v-0.5c1.5,0,1.6-1.3,1.6-3.6V14.6c0-2.4-0.6-3-1.9-3.5v-0.4l5.5-1.5h0.3v3.1c1.9-1.8,4.4-3.1,6.7-3.1
	c3,0,4.7,2.1,4.7,5.8v10C65,27.2,65.1,28.5,66.6,28.5z"/>
<path class="st0" d="M84,24.5c-1.4,2.3-3.7,4.9-7.7,4.9c-5.2,0-8.1-4.4-8.1-9.8c0-6,3.9-10.4,9-10.4c4.3,0,7.1,3,6.8,7.9H72.2
	c0,0.3,0,0.5,0,0.8c0,5.4,1.9,9.2,6,9.2c2.1-0.1,4-1.1,5.1-2.9L84,24.5z M72.3,15.9h7.9c0.3-3.8-0.6-5.9-3.2-5.9
	S72.7,12.6,72.3,15.9z"/>
<path class="st0" d="M85.4,28.5c1.5,0,1.6-1.3,1.6-3.6V5.1c0-2.4-0.6-3-1.9-3.5V1.2L90.5,0h0.3v24.9c0,2.4,0.1,3.6,1.6,3.6v0.5h-7.1
	V28.5z"/>
</svg>
